<svg version="1.2" xmlns="http://www.w3.org/2000/svg" viewBox="0 0 1254 751" width="1254" height="751"><style>.a{fill:#d8ecf3}.b{fill:#b9d0d6}.c{fill:#152054}.d{fill:#f9e35d}.e{fill:#d6dae7}.f{fill:#f8fcfd}.g{fill:#fff}.h{fill:none;stroke:#152054;stroke-width:8}.i{fill:#a2db69}.j{fill:#80c46a}.k{fill:#4aa957}.l{fill:#c5e201}.m{fill:#a5d600}.n{fill:#87be00}.o{fill:#7b6769}.p{fill:#d5cdbd}.q{fill:#eae6de}.r{fill:#f4f2ee}.s{fill:#e0dbd0}.t{opacity:.2;fill:#bcb2a2}.u{fill:#f4fafe}.v{fill:#f3885f}.w{opacity:.3;fill:#152054}.x{fill:#f8a382}.y{fill:#9eccd8}.z{fill:#f55d6c}.A{opacity:.2;fill:#fff}</style><g style="opacity:.3"><path class="a" d="m1251 383c0 9.5-7.7 17.2-17.1 17.2h-103c-9.5 0-17.2-7.7-17.2-17.2v-27.5c0-9.4 7.7-17.2 17.2-17.2h103c9.4 0 17.1 7.8 17.1 17.2z"/><path class="b" d="m1251 385.9c0 7.9-7.2 14.3-15.9 14.3h-95.9c-8.8 0-15.9-6.4-15.9-14.3v-22.8c0-7.8 7.1-14.3 15.9-14.3h95.9c8.7 0 15.9 6.5 15.9 14.3z"/><path fill-rule="evenodd" class="c" d="m1110.9 383v-27.5c0-11 9-20 20-20h103c11 0 20 9 20 20v27.5c0 11.1-9 20-20 20.1h-103c-11-0.1-20-9-20-20.1zm20-41.8c-7.9 0-14.3 6.5-14.3 14.3v27.5c0 7.9 6.4 14.3 14.3 14.3h103c7.8 0 14.2-6.4 14.3-14.3v-27.5c-0.1-7.8-6.5-14.3-14.3-14.3z"/><path class="a" d="m1185.9 321.2c0 9.4-7.7 17.1-17.2 17.1h-102.9c-9.5 0-17.2-7.7-17.2-17.1v-27.5c0-9.5 7.7-17.2 17.2-17.2h102.9c9.5 0 17.2 7.7 17.2 17.2z"/><path class="b" d="m1185.9 324.1c0 7.8-7.2 14.2-16 14.2h-95.8c-8.8 0-16-6.4-16-14.2v-22.9c0-7.8 7.2-14.2 16-14.2h95.8c8.8 0 16 6.4 16 14.2z"/><path fill-rule="evenodd" class="c" d="m1045.7 321.2v-27.5c0.1-11.1 9-20.1 20.1-20.1h102.9c11.1 0 20.1 9 20.1 20.1v27.5c0 11-9 20-20.1 20h-102.9c-11.1 0-20-9-20.1-20zm20.1-41.8c-7.9 0-14.3 6.4-14.3 14.3v27.5c0 7.8 6.4 14.3 14.3 14.3h102.9c7.9 0 14.3-6.5 14.3-14.3v-27.5c0-7.9-6.4-14.3-14.3-14.4z"/></g><g style="opacity:.3"><path class="a" d="m140.3 426c0 9.5-7.7 17.2-17.2 17.2h-102.9c-9.5 0-17.2-7.7-17.2-17.2v-27.5c0-9.4 7.7-17.1 17.2-17.1h102.9c9.5 0 17.2 7.7 17.2 17.1z"/><path class="b" d="m140.3 429c0 7.8-7.2 14.2-16 14.2h-95.8c-8.8 0-16-6.4-16-14.2v-22.9c0-7.8 7.2-14.3 16-14.3h95.8c8.8 0 16 6.5 16 14.3z"/><path fill-rule="evenodd" class="c" d="m0.1 426v-27.5c0-11 9-20 20.1-20h102.9c11.1 0 20.1 9 20.1 20v27.5c0 11.1-9 20.1-20.1 20.1h-102.9c-11.1 0-20.1-9-20.1-20.1zm20.1-41.8c-7.9 0-14.3 6.5-14.3 14.3v27.5c0 7.9 6.4 14.3 14.3 14.3h102.9c7.9 0 14.3-6.4 14.3-14.3v-27.5c0-7.8-6.4-14.3-14.3-14.3z"/><path class="a" d="m203.4 364.2c0 9.4-7.7 17.1-17.2 17.1h-102.9c-9.5 0-17.2-7.7-17.2-17.1v-27.5c0-9.5 7.7-17.2 17.2-17.2h102.9c9.5 0 17.2 7.7 17.2 17.2z"/><path class="b" d="m203.4 367.1c0 7.8-7.2 14.2-16 14.2h-95.8c-8.8 0-16-6.4-16-14.2v-22.9c0-7.8 7.2-14.2 16-14.2h95.8c8.8 0 16 6.4 16 14.2z"/><path fill-rule="evenodd" class="c" d="m63.2 364.2v-27.5c0.1-11.1 9-20 20.1-20.1h102.9c11.1 0.1 20.1 9 20.1 20.1v27.5c0 11-9 20-20.1 20h-102.9c-11.1 0-20-9-20.1-20zm20.1-41.8c-7.9 0-14.3 6.4-14.3 14.3v27.5c0 7.8 6.4 14.3 14.3 14.3h102.9c7.9 0 14.3-6.5 14.3-14.3v-27.5c0-7.9-6.4-14.3-14.3-14.3z"/></g><g style="opacity:.3"><path class="a" d="m324.6 109.4c0 9.4-7.7 17.2-17.2 17.2h-103c-9.4 0-17.1-7.8-17.1-17.2v-27.5c0-9.5 7.7-17.2 17.1-17.2h103c9.5 0 17.2 7.7 17.2 17.2z"/><path class="b" d="m324.6 112.3c0 7.8-7.2 14.3-16 14.3h-95.8c-8.8 0-16-6.5-16-14.3v-22.8c0-7.9 7.2-14.3 16-14.3h95.8c8.8 0 16 6.4 16 14.3z"/><path fill-rule="evenodd" class="c" d="m184.4 109.4v-27.5c0-11.1 9-20 20-20h103c11 0 20 8.9 20 20v27.5c0 11-9 20-20 20h-103c-11 0-20-9-20-20zm20-41.8c-7.8 0-14.3 6.4-14.3 14.3v27.5c0 7.8 6.5 14.3 14.3 14.3h103c7.9 0 14.3-6.5 14.3-14.3v-27.5c0-7.9-6.4-14.3-14.3-14.3z"/><path class="a" d="m263.3 47.5c0 9.5-7.8 17.2-17.2 17.2h-103c-9.4 0-17.1-7.7-17.1-17.2v-27.5c0-9.4 7.7-17.1 17.1-17.1h103c9.4 0 17.2 7.7 17.2 17.1z"/><path class="b" d="m263.3 50.5c0 7.8-7.2 14.2-16 14.2h-95.8c-8.8 0-16-6.4-16-14.2v-22.9c0-7.8 7.2-14.3 16-14.3h95.8c8.8 0 16 6.5 16 14.3z"/><path fill-rule="evenodd" class="c" d="m123.1 47.5v-27.5c0-11 9-20 20-20h103c11 0 20 9 20 20v27.5c0 11.1-9 20.1-20 20.1h-103c-11 0-20-9-20-20.1zm20-41.8c-7.8 0-14.3 6.5-14.3 14.3v27.5c0 7.9 6.5 14.3 14.3 14.3h103c7.8 0 14.3-6.4 14.3-14.3v-27.5c0-7.8-6.5-14.3-14.3-14.3z"/><path class="a" d="m401 47.5c0 9.5-7.7 17.2-17.1 17.2h-103c-9.4 0-17.2-7.7-17.2-17.2v-27.5c0-9.4 7.8-17.1 17.2-17.1h103c9.4 0 17.1 7.7 17.1 17.1z"/><path class="b" d="m401 50.5c0 7.8-7.2 14.2-15.9 14.2h-95.9c-8.7 0-15.9-6.4-15.9-14.2v-22.9c0-7.8 7.2-14.3 15.9-14.3h95.9c8.7 0 15.9 6.5 15.9 14.3z"/><path fill-rule="evenodd" class="c" d="m260.9 47.5v-27.5c0-11 9-20 20-20h103c11 0 20 9 20 20v27.5c0 11.1-9 20.1-20 20.1h-103c-11 0-20-9-20-20.1zm20-41.8c-7.9 0-14.3 6.5-14.3 14.3v27.5c0 7.9 6.4 14.3 14.3 14.3h103c7.8 0 14.3-6.4 14.3-14.3v-27.5c0-7.8-6.5-14.3-14.3-14.3z"/></g><path class="d" d="m374.1 45.8c0 14.6-11.8 26.4-26.4 26.4-14.5 0-26.3-11.8-26.3-26.4 0-14.6 11.8-26.4 26.3-26.4 14.6 0 26.4 11.8 26.4 26.4z"/><path fill-rule="evenodd" class="c" d="m317.5 45.8c0-16.7 13.5-30.3 30.2-30.3 16.8 0 30.3 13.6 30.3 30.3 0 16.7-13.5 30.3-30.3 30.3-16.7 0-30.2-13.6-30.2-30.3zm7.8 0c0 12.4 10 22.4 22.4 22.5 12.5-0.1 22.5-10.1 22.5-22.5 0-12.4-10-22.5-22.5-22.5-12.4 0-22.4 10.1-22.4 22.5z"/><path class="d" d="m484.2 211.9c0 32.6-26.4 59-58.9 59-32.6 0-59-26.4-59-59 0-32.5 26.4-58.9 59-58.9 32.5 0 58.9 26.4 58.9 58.9z"/><path fill-rule="evenodd" class="c" d="m362.4 211.9c0-34.7 28.2-62.8 62.9-62.8 34.7 0 62.9 28.1 62.9 62.8 0 34.8-28.2 62.9-62.9 62.9-34.7 0-62.9-28.1-62.9-62.9zm7.8 0c0.1 30.4 24.7 55 55.1 55.1 30.4-0.1 55-24.7 55-55.1 0-30.4-24.6-55-55-55-30.4 0-55 24.6-55.1 55z"/><path class="e" d="m95 238.6l17.5-8.7 143.2 290.8-17.5 8.6z"/><path class="e" d="m138 238.6l17.5-8.7 143.2 290.8-17.5 8.6z"/><path fill-rule="evenodd" class="c" d="m91.5 240.3l-1.8-3.5 24.6-12.1 146.6 297.7-24.5 12.1zm148.4 283.8l10.5-5.2-139.7-283.7-10.5 5.2z"/><path fill-rule="evenodd" class="c" d="m134.5 240.3l-1.8-3.5 24.6-12.1 146.6 297.7-24.5 12.1zm148.4 283.8l10.5-5.2-139.7-283.7-10.5 5.2z"/><path class="e" d="m120 273.5l-10.1-16.8 277.8-166.9 10.1 16.8z"/><path class="e" d="m116.4 230.6l-10.1-16.7 277.8-167 10.1 16.8z"/><path fill-rule="evenodd" class="c" d="m122 276.8l-3.4 2-14-23.4 284.4-171 14.1 23.5zm270.4-171.6l-6-10.1-271.1 162.9 6.1 10.1z"/><path fill-rule="evenodd" class="c" d="m118.4 234l-3.3 2-14.1-23.5 284.5-170.9 14.1 23.4zm270.4-171.6l-6.1-10-271.1 162.9 6.1 10z"/><path class="e" d="m172.6 239.6c0 23.2-18.8 42-42 42-23.2 0-42-18.8-42-42 0-23.2 18.8-42 42-42 23.2 0 42 18.8 42 42z"/><path class="c" d="m137.2 239.6c0 3.7-2.9 6.6-6.6 6.6-3.6 0-6.6-2.9-6.6-6.6 0-3.6 3-6.6 6.6-6.6 3.7 0 6.6 3 6.6 6.6z"/><path fill-rule="evenodd" class="c" d="m107.7 239.6c0-12.7 10.2-22.9 22.9-22.9 12.7 0 23 10.2 23 22.9 0 12.7-10.3 23-23 23-12.7 0-22.9-10.3-22.9-23zm7.8 0c0 8.4 6.8 15.1 15.1 15.2 8.4-0.1 15.2-6.8 15.2-15.2 0-8.4-6.8-15.1-15.2-15.1-8.3 0-15.1 6.7-15.1 15.1z"/><path fill-rule="evenodd" class="c" d="m84.7 239.6c0-25.4 20.6-45.9 45.9-45.9 25.4 0 46 20.5 46 45.9 0 25.4-20.6 45.9-46 45.9-25.3 0-45.9-20.5-45.9-45.9zm7.8 0c0.1 21.1 17.1 38.1 38.1 38.1 21.1 0 38.1-17 38.1-38.1 0-21-17-38.1-38.1-38.1-21 0-38 17.1-38.1 38.1z"/><path class="e" d="m522.2 156.7c-4.9-10.6-14.4-17.7-25.1-19.8-34.2-8.5-64.3-31.8-80.2-66.3-2.4-5.2-4.4-10.4-6-15.7l-0.2 0.1c-0.4-1.5-0.9-2.9-1.5-4.2-6.5-14.1-22.5-20.7-36.8-15.8l-0.1-0.2-45.6 21c-15 7-21.6 24.7-14.7 39.7 0.6 1.4 1.4 2.7 2.2 3.9v0.1c2.9 4.6 5.7 9.5 8 14.7 15.7 33.9 14.1 71.4-1.1 102.7-6 9.7-7.2 22.1-2.1 33.3 8.2 17.7 29.2 25.5 46.9 17.3q0.4-0.2 0.8-0.4l140.1-64.5c16.3-8.8 23.2-28.8 15.4-45.9z"/><path class="f" d="m506.8 202.6c16.3-8.8 23.2-28.8 15.4-45.9-4.9-10.6-14.4-17.7-25.1-19.8-34.2-8.5-64.3-31.8-80.2-66.3-2.4-5.2-4.4-10.4-6-15.7l-0.2 0.1c-0.4-1.5-0.9-2.9-1.5-4.2-5.6-12.1-18.2-18.7-30.8-17.2l-20 9.3c-17.8 8.1-25.6 29.2-17.4 46.9 0.8 1.7 1.6 3.2 2.6 4.6v0.1c3.5 5.5 6.7 11.3 9.5 17.4 18.5 40.2 16.6 84.6-1.3 121.5-6.7 10.9-8.4 24.6-3.4 37.2 5.8 0.5 11.8-0.5 17.5-3.1q0.4-0.2 0.8-0.4l140.1-64.5z"/><path class="c" d="m315.5 251.9c-2.4-5.3-3.6-10.9-3.6-16.4 0-7.3 2-14.4 5.8-20.5 7.6-15.8 11.6-33.1 11.6-50.8 0-16.2-3.4-32.7-10.6-48.4q-3.5-7.5-7.8-14.2l-2.1-3.3 0.2-0.1q-0.3-0.5-0.6-1c-2.1-4.6-3.1-9.4-3.1-14.2 0-12.8 7.3-25 19.7-30.7l49.1-22.6 0.4 0.6q3.7-0.9 7.5-0.8c12.8 0 25 7.3 30.8 19.6q0.2 0.6 0.4 1.1l0.4-0.1 1.1 3.7c1.5 5.1 3.4 10.2 5.7 15.1 15.4 33.4 44.5 55.9 77.6 64.2 11.8 2.4 22.3 10.2 27.7 22l-3.5 1.6-3.6 1.6c-4.3-9.4-12.8-15.7-22.3-17.6h-0.1c-35.3-8.8-66.5-32.9-82.9-68.5q-2.8-6.2-5-12.6l-0.3 0.1-1-3.7q-0.6-1.9-1.3-3.6c-4.4-9.5-13.8-15.1-23.7-15.1-2.8 0-5.6 0.4-8.4 1.4l-1.3 0.4-44 20.3c-9.5 4.4-15.1 13.8-15.1 23.6 0 3.7 0.7 7.4 2.4 10.9 0.5 1.1 1.1 2.3 1.9 3.4l2.1 3.2-0.1 0.1q3.4 5.7 6.3 11.9c7.7 16.8 11.4 34.4 11.4 51.7 0 18.9-4.4 37.5-12.6 54.4l-0.1 0.1-0.1 0.2c-3 5-4.7 10.7-4.7 16.6 0 4.4 0.9 8.8 2.9 13.1 5.3 11.5 16.6 18.2 28.5 18.2 4.4 0 8.9-0.9 13.1-2.8q0.3-0.2 0.8-0.4l3.1-1.6 0.1 0.1 135.8-62.5 0.9-0.5c10.5-5.6 16.6-16.4 16.6-27.7 0-4.4-0.9-8.8-2.9-13.1l3.6-1.6 3.5-1.6c2.5 5.3 3.6 10.8 3.6 16.3 0 13-6.4 25.4-17.6 32.8l0.2 0.4-144.1 66.3q-0.2 0.1-0.3 0.2-0.2 0.1-0.4 0.1l-1.8 0.9-0.1-0.1c-4.6 1.8-9.4 2.7-14.1 2.7-14.8 0-29-8.5-35.6-22.8z"/><path class="e" d="m372.1 549.6c0-23.5-19.4-42.7-43-42.7h-157.4c-23.6 0-43 19.2-43 42.7q0 0.1 0 0.3h243.4q0-0.2 0-0.3z"/><path class="e" d="m318.8 506.8c0-13.2-10.9-24-24.2-24h-88.4c-13.3 0-24.2 10.8-24.2 24q0 0 0 0.1h136.8q0-0.1 0-0.1z"/><path class="f" d="m131.8 538h154.3c14.1 0 25.7-10.5 25.7-23.4v-7.7h-140.1c-19.5 0-36.2 13.2-41.3 31q0.7 0.1 1.4 0.1z"/><path class="f" d="m183.7 500.3h86.8c7.9 0 14.4-6 14.4-13.2v-4.3h-78.7c-11 0-20.4 7.4-23.3 17.4q0.4 0 0.8 0.1z"/><path class="g" d="m171.7 506.9c-14.9 0-28 7.6-35.8 19.1h31.3c11.4 0 21-8.2 23-19.1z"/><path class="g" d="m206.2 482.8c-8.4 0-15.8 4.3-20.2 10.7h17.6c6.4 0 11.8-4.6 13-10.7z"/><path class="h" d="m372.1 549.6c0-23.5-19.4-42.7-43-42.7h-157.4c-23.6 0-43 19.2-43 42.7q0 0.1 0 0.3h243.4q0-0.2 0-0.3z"/><path class="h" d="m318.8 506.8c0-13.2-10.9-24-24.2-24h-88.4c-13.3 0-24.2 10.8-24.2 24q0 0 0 0.1h136.8q0-0.1 0-0.1z"/><path class="i" d="m1067.6 402.4c-1.6-3.6-4.7-6-8.2-6.8-4.2-1.2-11-1.5-14-3.5-3.6-2.3-1.2-10.9-1.2-10.9q0 0 0-0.1c0.5-2 0.3-4.2-0.6-6.3-1-2.1-2.7-3.8-4.7-4.7q0 0 0-0.1-0.7-0.2-1.3-0.4-0.2-0.1-0.4-0.1c-4.1-1.2-5.9 0.3-12.7 0.5-5.7 0.2-8.2-6.2-9.1-9.4q-0.1-1.1-0.6-2.3c-1.4-3.2-4.9-4.9-8.3-4.3q-0.1-0.1-0.2-0.1c-18 4.1-23.7 0.1-31.3 1.3-7.6 1.1-9.3 1.9-10.7 5.8-1.4 4 6.7 6.4 10.4 10.6 2.8 3.4 3.4 10.3 3.5 13-0.1 1.2 0.1 2.5 0.7 3.6 1.1 2.7 3.6 4.3 6.3 4.5 3.4 0.6 9.4-2.6 12-1.6 2.8 1 4.9 3.2 1.3 9.1-4.4 6.4-6 11.3-6 11.3v0.1c-0.8 2.3-0.8 4.9 0.3 7.3 1 2.2 2.7 3.8 4.7 4.8 2 1 5.3 0.7 8.8 5.9 3 4.6-1.2 11.4-3.1 14.1-3 3.4-3.9 8.4-1.9 12.8 2.7 6.1 9.8 8.8 15.9 6.1q0.3-0.1 0.5-0.3 0 0 0 0 0.1 0 0.2 0 0.6-0.4 1.2-0.7c14.8-8.6 20.4-2.2 20.4-2.2 11-4.9 11.2-5.8 13-12.7 3.1-10.1 10.7-25.9 13.8-32.3 2.5-3.3 3.2-7.9 1.3-12z"/><path class="j" d="m1059.4 395.6c-4.2-1.2-11-1.5-14-3.5-3.6-2.3-1.2-10.9-1.2-10.9q0 0 0-0.1c0.5-2 0.3-4.2-0.6-6.3-1-2.1-2.7-3.8-4.7-4.7q0 0 0-0.1-0.7-0.2-1.3-0.4-0.2-0.1-0.4-0.1c-4.1-1.2-5.9 0.3-12.7 0.5-5.7 0.2-8.2-6.2-9.1-9.4q-0.1-1.1-0.6-2.3c-0.6-1.4-1.7-2.5-2.9-3.3-5.1 7.1-17.9 11.7-29.6 7.9-15.5-5.2-14.5-0.6-11.9-0.3 2.6 0.2 11.6 7.7 9.4 15.3-2.2 7.7 14.8-2.7 18 0.4 3.2 3.2 0 7.1 6.4 3.7 6.4-3.4 10.3-3.1 3.1 7.7-7.1 10.8 6.7 4.8 13 3.4 6.3-1.4 1.2 8.6-15.3 12.7-16.5 4.1 7.2 3.8 22 7.7 14.8 4-2.6 6-10.6 8.2-8 2.2-4 6.7 1.1 5.1 5.1-1.6 17.7 1.4 13.7 8.2-4 6.7-19.7 6.1-21.5 11.5-1.8 5.4 3.8 4.9 21.6 3.2 12.6-1.1 13.1 4.5 12.3 7.8 7-3.4 7.3-4.9 8.9-10.8 3.1-10.1 10.7-25.9 13.8-32.3 2.5-3.3 3.2-7.9 1.3-12-1.6-3.6-4.7-6-8.2-6.8z"/><path class="i" d="m1058.8 407c1.7 3.7-3.4 4.3-6.5 8.2-5.9 7.6-8.4 8-10.1 4.2-1.7-3.7 0.7-13.4 5.3-15.4 4.6-2.1 9.7-0.7 11.3 3z"/><path class="i" d="m1037.8 379.7c-0.2 3.4-4.1 1.8-7.8 3.5-7.1 3.3-9 2.6-8.8-0.7 0.1-3.3 5.5-9.4 9.5-9.1 4.1 0.2 7.2 3 7.1 6.3z"/><path class="k" d="m1026.8 398.6c-3.9-5.9-8.1-10.9-12.1-14.9-0.8-1.8-1.8-5.2-0.3-9.2 1.9-5-5.4-1.7-6 3.4-4.1-3.6-7.8-6.1-10.4-7.7-0.3-1.2-0.3-2.6 0.3-4.2 1.2-3.3-3.5-1.1-3.8 2.1q-0.1 0-0.2-0.1-0.1 0-0.2-0.1-0.1 0-0.1 0c-0.5-0.2-1.1-0.2-1.6 0-1 0.4-1.4 1.6-1 2.6 0.3 0.6 0.8 1 1.4 1.1q0.2 0.1 0.6 0.3c4.9 2.8 25.7 15.6 37.8 42.5 3.6 8 6.5 17.3 7.9 28q0 0.4 0.2 0.8c0.4 1 1.6 1.4 2.6 1 1-0.5 1.4-1.6 1-2.6q-0.2-1.5-0.5-2.9c0 0 0-5.1 4.5-8.6 3.9-3.1-3.3-4-6.3-0.5-1.6-6.1-3.6-11.7-5.9-16.8q-0.7-1.6-1.5-3.2c-0.3-2.1-0.6-8.3 4-13.9 5.3-6.4-7.9-4.8-10.4 2.9z"/><path class="i" d="m1056.3 392.9c1.9-4.2 5.6-7 9.7-7.9 4.9-1.3 12.9-1.8 16.3-4.1 4.2-2.7 1.5-12.8 1.5-12.8q0 0 0 0c-0.6-2.4-0.4-5 0.6-7.4 1.2-2.5 3.2-4.5 5.5-5.6q0 0 0 0 0.9-0.4 1.6-0.6 0.2 0 0.4-0.1c4.8-1.3 6.9 0.4 14.9 0.6 6.7 0.2 9.6-7.3 10.6-10.9q0.2-1.4 0.8-2.8c1.7-3.8 5.7-5.8 9.6-5q0.2-0.1 0.4-0.1c21 4.7 27.7 0.1 36.6 1.4 8.9 1.4 10.9 2.3 12.5 6.9 1.7 4.6-7.8 7.5-12.1 12.5-3.4 3.9-4 12-4.2 15.2 0.1 1.4-0.1 2.8-0.7 4.2-1.4 3.1-4.3 5-7.5 5.2-3.9 0.7-10.9-3-14-1.9-3.3 1.2-5.7 3.8-1.5 10.8 5.2 7.4 7 13.2 7 13.2h-0.1c1 2.7 1 5.7-0.3 8.6-1.1 2.5-3.1 4.5-5.5 5.6-2.3 1.2-6.2 0.8-10.2 6.9-3.6 5.4 1.3 13.4 3.6 16.5 3.5 4 4.6 9.9 2.2 15.1-3.2 7.1-11.5 10.3-18.7 7.1q-0.3-0.2-0.6-0.3 0 0 0 0 0-0.1-0.1-0.1-0.7-0.4-1.4-0.8c-17.4-10.1-24-2.5-24-2.5-12.8-5.8-13-6.8-15.2-14.9-3.6-11.9-12.5-30.4-16.2-37.8-2.9-4-3.6-9.4-1.5-14.2z"/><path class="j" d="m1066 385c4.9-1.3 12.9-1.8 16.3-4.1 4.2-2.7 1.5-12.8 1.5-12.8q0 0 0 0c-0.6-2.4-0.4-5 0.6-7.4 1.2-2.5 3.2-4.5 5.5-5.6q0 0 0 0 0.9-0.4 1.6-0.6 0.2 0 0.4-0.1c4.8-1.3 6.9 0.4 14.9 0.6 6.7 0.2 9.6-7.3 10.6-10.9q0.2-1.4 0.8-2.8c0.7-1.6 1.9-3 3.4-3.8 5.9 8.2 20.9 13.7 34.6 9.2 18.2-6.1 17-0.7 14-0.4-3 0.3-13.6 9-11 18 2.6 9-17.4-3.2-21.1 0.5-3.7 3.7 0 8.3-7.5 4.3-7.5-4-12-3.6-3.7 9.1 8.4 12.6-7.8 5.5-15.2 3.9-7.3-1.7-1.4 10.1 18 14.8 19.3 4.8-8.5 4.5-25.8 9.1-17.4 4.6 3 7 12.4 9.6 9.4 2.5 4.7 7.9-1.2 6-6-1.9-20.8 1.6-16.1 9.5 4.7 7.9 23 7.3 25.1 13.6 2.1 6.3-4.4 5.6-25.2 3.7-14.8-1.3-15.4 5.2-14.5 9.1-8.1-3.9-8.5-5.7-10.4-12.6-3.6-11.9-12.5-30.4-16.2-37.8-2.9-4-3.6-9.4-1.5-14.2 1.9-4.2 5.6-7 9.7-7.9z"/><path class="i" d="m1066.6 398.4c-2 4.3 4 5 7.6 9.6 7 8.9 9.9 9.3 11.9 4.9 2-4.3-0.9-15.7-6.2-18.1-5.4-2.4-11.3-0.8-13.3 3.6z"/><path class="i" d="m1091.3 366.4c0.2 3.9 4.8 2.1 9.1 4.1 8.3 3.9 10.5 3 10.3-0.8-0.2-3.9-6.4-11-11.2-10.7-4.7 0.2-8.4 3.6-8.2 7.4z"/><path class="k" d="m1104.1 388.5c4.6-6.9 9.5-12.7 14.2-17.5 0.9-2 2.1-6 0.3-10.7-2.2-5.9 6.3-2 7 4 4.9-4.2 9.3-7.2 12.3-9.1 0.3-1.3 0.3-3-0.4-4.9-1.4-3.8 4.1-1.2 4.5 2.6q0.1-0.1 0.2-0.2 0.1 0 0.2-0.1 0.1 0 0.1 0c0.6-0.3 1.3-0.3 1.9 0 1.2 0.5 1.7 1.9 1.2 3-0.3 0.7-1 1.2-1.7 1.3q-0.2 0.2-0.6 0.4c-5.8 3.2-30.2 18.2-44.4 49.8-4.2 9.4-7.5 20.2-9.2 32.7q0 0.5-0.2 0.9c-0.5 1.2-1.9 1.7-3 1.2-1.2-0.5-1.7-1.9-1.2-3q0.2-1.7 0.5-3.4c0 0 0.1-6-5.2-10.1-4.6-3.6 3.8-4.7 7.4-0.5 1.8-7.2 4.1-13.7 6.8-19.7q0.9-1.9 1.8-3.8c0.3-2.4 0.8-9.7-4.7-16.3-6.2-7.4 9.3-5.6 12.2 3.4z"/><path class="l" d="m1117.7 407.5c0-5.2-2.5-9.8-6.3-12.7-4.4-3.6-12.5-7.8-15-11.7-3.1-4.9 4.5-14 4.5-14q0 0 0-0.1c1.7-2.1 2.7-4.9 2.7-7.8 0-3.2-1.2-6.1-3.1-8.3q0-0.1 0-0.1-0.7-0.8-1.3-1.3-0.2-0.2-0.4-0.3c-4.4-3.7-7.3-2.8-15.6-6.3-7.1-2.9-6.6-12-6-16.3q0.5-1.5 0.5-3.1c0-4.8-3.2-8.7-7.6-9.8q-0.2-0.1-0.3-0.2c-24-4.9-28.7-12.8-38.6-15.5-9.8-2.8-12.2-2.8-16.1 1.3-3.8 4 4.7 11.3 6.8 18.5 1.6 5.6-1.4 14.3-2.8 17.6-0.7 1.4-1.2 3-1.2 4.7 0 3.9 2.2 7.2 5.3 8.9 3.8 2.5 12.7 2 15.4 4.6 2.8 2.7 4.1 6.5-3.4 11.7-8.8 5.3-13.4 10.5-13.4 10.5-2.3 2.3-3.7 5.5-3.7 9 0 3.2 1.2 6.1 3.2 8.4 1.8 2.3 6 3.7 7.3 11.9 1.2 7.3-7.6 13.2-11.4 15.3-5.5 2.6-9.3 8.1-9.3 14.6 0 8.8 7.2 16 16 16q0.4 0 0.8 0 0 0 0 0 0.1 0 0.2 0 0.9-0.1 1.8-0.2c22.7-2.4 25.9 8.5 25.9 8.5 16 0 16.7-0.9 22.6-8.3 9.3-10.6 27.1-25.6 34.3-31.5 4.9-2.8 8.2-8 8.2-14z"/><path class="m" d="m1111.4 394.8c-4.4-3.6-12.5-7.8-15-11.7-3.1-4.9 4.5-14 4.5-14q0 0 0-0.1c1.7-2.1 2.7-4.9 2.7-7.8 0-3.2-1.2-6.1-3.1-8.3q0-0.1 0-0.1-0.7-0.8-1.3-1.3-0.2-0.2-0.4-0.3c-4.4-3.7-7.3-2.8-15.6-6.3-7.1-2.9-6.6-12-6-16.3q0.5-1.5 0.5-3.1c0-2.1-0.6-4-1.7-5.6-9.9 5.8-28 4.5-40-6.6-16.1-14.7-17.3-8.5-14.3-6.8 3 1.7 9.8 15.6 3 23.7-6.9 8.1 19.4 4.7 21.5 10.2 2.2 5.6-3.8 8.6 5.8 7.9 9.6-0.6 14.1 2-0.4 11.1-14.6 9.2 5.5 9.4 13.9 11.2 8.3 1.7-3.3 11.1-25.5 7-22.2-4.1 6.7 8.5 22.5 21.4 15.8 12.8-6.4 5.7-17.3 4-10.9-1.7-8.6 6-1.5 6.9 7 0.8 20.7 11.3 12.1 17.3-8.5 5.9-27.1-3.2-32.2 2.3-5.1 5.6 1.9 7.9 24.3 15.6 15.9 5.5 13.5 12.5 10.7 16.1 10.3-0.3 11.6-1.9 16.6-8.2 9.3-10.6 27.1-25.6 34.3-31.5 4.9-2.8 8.2-8 8.2-14 0-5.2-2.5-9.8-6.3-12.7z"/><path class="l" d="m1104.6 408.4c0 5.4-6.5 3.3-12.4 6.4-11.4 6-14.6 5-14.6-0.5 0-5.4 8.2-15.8 14.9-15.8 6.6 0 12.1 4.4 12.1 9.9z"/><path class="l" d="m1093.8 363.9c-2 3.9-5.9 0-11.2 0-10.4 0.1-12.4-1.8-10.3-5.7 2-3.9 11.7-8.3 16.5-5.9 4.8 2.5 7.1 7.7 5 11.6z"/><path class="n" d="m1070.4 380.8c-1.5-9.3-3.9-17.6-6.6-24.7 0-2.5 0.7-7.2 4.6-11.2 5-5.1-5.5-5-9 0.8-3.2-6.6-6.3-11.7-8.5-15.1 0.3-1.5 1.1-3.3 2.7-4.9 3.2-3.2-3.7-3.1-5.8 0.6q-0.1-0.2-0.2-0.3-0.1-0.1-0.2-0.1 0-0.1-0.1-0.1c-0.4-0.6-1.1-0.9-1.9-0.9-1.5 0-2.6 1.1-2.6 2.6 0 0.9 0.4 1.6 1.1 2.1q0.2 0.3 0.5 0.7c4.4 5.9 22.7 32.9 22.7 72 0 11.7-1.7 24.5-5.7 38.1q-0.2 0.5-0.3 1.1c0 1.4 1.2 2.6 2.7 2.6 1.4 0 2.6-1.1 2.6-2.6q0.5-1.8 1-3.7c0 0 2.8-6.3 10.1-8 6.4-1.6-1.8-6.6-7.4-4 1.5-8.2 2.1-16.1 2.1-23.5q0-2.4-0.1-4.7c0.8-2.7 3.7-10.4 12.4-14.7 9.9-4.8-7-10.1-14.1-2.1z"/><path class="o" d="m1096.9 456.2c-1.3 0-2.5 0.3-3.6 0.9-1.5-2.7-4.4-4.6-7.7-4.6-1.6 0-3.1 0.4-4.4 1.2-1-1.9-2.9-3.1-5.1-3.1-2 0-3.8 1.1-4.9 2.7-0.8-0.4-1.8-0.6-2.8-0.6-1.3 0-2.5 0.4-3.6 1-1.4-3-4.4-5-7.9-5-3.4 0-6.4 1.9-7.9 4.8q-1-0.5-2.2-0.5c-2.7 0-4.9 1.8-5.5 4.2-0.9-0.5-1.9-0.8-3-0.8-1.1 0-2.1 0.3-2.9 0.8-1.6-1.8-4-2.9-6.6-2.9-4.8 0-8.8 3.9-8.8 8.8 0 4.6 3.6 8.4 8.2 8.8h68.6q0.1 0 0.1 0c4.4 0 7.9-3.5 7.9-7.9 0-4.3-3.5-7.8-7.9-7.8z"/><path class="p" d="m1136.2 505.8c0 20.8-19 37.8-42.3 37.8h-64.7c-23.3 0-42.3-17-42.3-37.8 0-20.8 19-37.8 42.3-37.8h64.7c23.3 0 42.3 17 42.3 37.8z"/><path class="q" d="m1091.8 468h-62.6c-23.3 0-42.3 17-42.3 37.8 0 9.3 3.8 17.9 10.2 24.6h62.6c23.3 0 42.3-17.1 42.3-37.9 0-9.3-3.8-17.9-10.2-24.5z"/><path class="r" d="m1053.7 510.9c0 7.8-7.1 14.2-15.9 14.2h-24.3c-8.8 0-15.9-6.4-15.9-14.2 0-7.8 7.1-14.2 15.9-14.2h24.3c8.8 0 15.9 6.4 15.9 14.2z"/><path class="r" d="m1090.1 479.3c0 3.7-3.4 6.6-7.5 6.6h-11.4c-4.1 0-7.4-2.9-7.4-6.6 0-3.7 3.3-6.7 7.4-6.7h11.4c4.1 0 7.5 3 7.5 6.7z"/><path class="r" d="m1043.9 476.3c0 2.7-2.5 4.9-5.5 4.9h-8.5c-3.1 0-5.5-2.2-5.5-4.9 0-2.7 2.4-4.9 5.5-4.9h8.5c3 0 5.5 2.2 5.5 4.9z"/><path class="s" d="m1107.5 534.4c0 3.7-3.3 6.7-7.4 6.7h-11.4c-4.1 0-7.5-3-7.5-6.7 0-3.6 3.4-6.6 7.5-6.6h11.4c4.1 0 7.4 3 7.4 6.6z"/><path class="t" d="m1121.3 533.4h-119.4q-0.7 0-1.3 0.2c7.5 6.2 17.6 10 28.6 10h64.7c11 0 21.1-3.8 28.6-10.1q-0.6-0.1-1.2-0.1z"/><path class="q" d="m1128.9 543.4c0 4.2-3.4 7.7-7.6 7.7h-119.4c-4.2 0-7.6-3.5-7.6-7.7 0-4.2 3.4-7.6 7.6-7.6h119.4c4.2 0 7.6 3.4 7.6 7.6z"/><path class="t" d="m1001.9 546.8c-2 0-3.8 0.9-5.2 2.1 1.4 1.3 3.2 2.2 5.2 2.2h119.4c2.1 0 3.9-0.9 5.3-2.2-1.4-1.2-3.2-2.1-5.3-2.1z"/><path class="a" d="m883.9 272.6c0-5.4-4.4-9.7-9.7-9.8h-392.6c-5.3 0.1-9.7 4.4-9.7 9.8v83.1 174.8h412v-174.8z"/><path fill-rule="evenodd" class="c" d="m887.9 535.9h-420v-179.2-82.1c0.1-8.8 7.2-16 16.1-16h387.8c8.9 0 16.1 7.2 16.1 16zm-6.4-179.1v-82.1c0-5.3-4.4-9.6-9.7-9.7h-387.8c-5.3 0.1-9.6 4.4-9.7 9.7v82.1h0.1v172.7h407.1z"/><path class="a" d="m922.7 535.8c0-1.8-1.5-3.2-3.2-3.2h-481.9c-1.8 0-3.2 1.4-3.2 3.2v14.1c0 1.8 1.4 3.3 3.2 3.3h481.9c1.7 0 3.2-1.5 3.2-3.3z"/><path class="b" d="m434.4 543.4v6.5c0 1.8 1.4 3.3 3.2 3.3h481.9c1.7 0 3.2-1.5 3.2-3.3v-6.5z"/><path class="u" d="m870.2 514.1c0 1.8-1.5 3.3-3.3 3.3h-376.8c-1.7 0-3.2-1.5-3.2-3.3v-232.2c0-1.8 1.5-3.3 3.2-3.3h376.8c1.8 0 3.3 1.5 3.3 3.3z"/><path fill-rule="evenodd" class="c" d="m437.6 556.4c-3.6-0.1-6.4-2.9-6.4-6.5v-14.1c0-3.5 2.8-6.4 6.4-6.4h481.9c3.5 0 6.4 2.9 6.4 6.4v14.1c0 3.6-2.9 6.4-6.4 6.5zm-0.1-20.6v14.1h0.1l481.8 0.1c0-0.1 0-0.1 0-0.1v-14.1h-481.8c0 0-0.1 0-0.1 0z"/><path class="v" d="m211.9 584.9v67c-3.7-3.1-8.2-4.9-13-4.9-13.7 0-24.7 14.1-24.7 31.5q0 0.5 0.1 1h-1v-94.6z"/><path class="w" d="m213.5 607.6h-42.3v-21.5h42.3z"/><path class="c" d="m211.6 670.9c1.8 0 3.2-1.5 3.2-3.2v-80.2c0-1.7-1.4-3.2-3.2-3.2-1.8 0-3.2 1.5-3.2 3.2v80.2c0 1.7 1.4 3.2 3.2 3.2z"/><path class="c" d="m173.3 688.1c1.7 0 3.2-1.5 3.2-3.2v-97.4c0-1.7-1.5-3.2-3.2-3.2-1.8 0-3.2 1.5-3.2 3.2v97.4c0 1.7 1.4 3.2 3.2 3.2z"/><path class="c" d="m173.3 706.8c1.7 0 3.2-1.4 3.2-3.2v-2.3c0-1.7-1.5-3.2-3.2-3.2-1.8 0-3.2 1.5-3.2 3.2v2.3c0 1.8 1.4 3.2 3.2 3.2z"/><path class="c" d="m211.6 706.8c1.8 0 3.2-1.4 3.2-3.2v-18.3c0-1.8-1.4-3.2-3.2-3.2-1.7 0-3.2 1.4-3.2 3.2v18.3c0 1.8 1.5 3.2 3.2 3.2z"/><path class="v" d="m1008.6 584.9v67c3.8-3.1 8.2-4.9 13-4.9 13.7 0 24.7 14.1 24.7 31.5q0 0.5-0.1 1h1v-94.6z"/><path class="w" d="m1050.1 607.6h-42.2v-21.5h42.2z"/><path class="c" d="m1008.9 670.9c-1.8 0-3.2-1.5-3.2-3.2v-80.2c0-1.7 1.4-3.2 3.2-3.2 1.8 0 3.2 1.5 3.2 3.2v80.2c0 1.7-1.4 3.2-3.2 3.2z"/><path class="c" d="m1047.2 688.1c-1.7 0-3.2-1.5-3.2-3.2v-97.4c0-1.7 1.5-3.2 3.2-3.2 1.8 0 3.2 1.5 3.2 3.2v97.4c0 1.7-1.4 3.2-3.2 3.2z"/><path class="c" d="m1047.2 706.8c-1.7 0-3.2-1.4-3.2-3.2v-2.3c0-1.7 1.5-3.2 3.2-3.2 1.8 0 3.2 1.5 3.2 3.2v2.3c0 1.8-1.4 3.2-3.2 3.2z"/><path class="c" d="m1008.9 706.8c-1.8 0-3.2-1.4-3.2-3.2v-18.3c0-1.8 1.4-3.2 3.2-3.2 1.8 0 3.2 1.4 3.2 3.2v18.3c0 1.8-1.4 3.2-3.2 3.2z"/><path class="x" d="m1154.1 572.2c0 7-5.7 12.8-12.8 12.8h-1062.1c-7.1 0-12.8-5.8-12.8-12.8v-5.4c0-7 5.7-12.8 12.8-12.8h1062.1c7.1 0 12.8 5.8 12.8 12.8z"/><path class="v" d="m66.4 571.9v0.3c0 7 5.7 12.8 12.8 12.8h1062.1c7.1 0 12.8-5.8 12.8-12.8v-0.3z"/><path fill-rule="evenodd" class="c" d="m79.2 588.2c-8.9 0-16-7.2-16-16v-5.4c0-8.8 7.1-16 16-16h1062.1c8.9 0 16 7.2 16.1 16v5.4c-0.1 8.8-7.2 16-16.1 16zm-9.6-21.4v5.4c0 5.2 4.4 9.6 9.6 9.6h1062.2c5.2 0 9.6-4.4 9.6-9.6v-5.4c0-5.3-4.4-9.6-9.6-9.6h-1062.2c-5.2 0-9.6 4.3-9.6 9.6z"/><path class="a" d="m132.2 495.2c-10.6 0-19.3 8.6-19.3 19.2v13.6c0 10.6 8.7 19.3 19.3 19.3h146.6v-52.1z"/><path class="y" d="m132.2 547.3h146.6v-10.7h-163.8c3.1 6.3 9.7 10.7 17.2 10.7z"/><path class="c" d="m144.6 524.7c-1.8 0-3.2-1.4-3.2-3.2 0-1.8 1.4-3.2 3.2-3.2h62.4c1.7 0 3.2 1.4 3.2 3.2 0 1.8-1.5 3.2-3.2 3.2z"/><path class="c" d="m221.9 524.7c-1.8 0-3.2-1.4-3.2-3.2 0-1.8 1.4-3.2 3.2-3.2h5.4c1.7 0 3.2 1.4 3.2 3.2 0 1.8-1.5 3.2-3.2 3.2z"/><path class="c" d="m260 524.7c-1.8 0-3.2-1.4-3.2-3.2 0-1.8 1.4-3.2 3.2-3.2h16.3c1.7 0 3.2 1.4 3.2 3.2 0 1.8-1.5 3.2-3.2 3.2z"/><path fill-rule="evenodd" class="c" d="m293.9 547.8c0 1.8-1.4 3.2-3.2 3.2h-155.9c-14.1 0-25.6-11.5-25.6-25.6v-8.8c0-14.2 11.5-25.7 25.6-25.7h87.8 68.1c1.8 0 3.2 1.5 3.2 3.2 0 1.8-1.4 3.2-3.2 3.2h-9.3v47.3h9.3c1.8 0 3.2 1.4 3.2 3.2zm-19-3.2v-47.3h-140.1c-10.5 0-19.2 8.7-19.2 19.3v8.8c0 10.5 8.7 19.2 19.2 19.2z"/><path class="z" d="m174.8 557.4l-16.2-8.1-15.9 8.1v-35.9h32.1z"/><path fill-rule="evenodd" class="c" d="m139.5 518.3h38.5v44.3l-19.3-9.7-19.2 9.7zm32.1 33.9v-27.5h-25.7v27.5l12.7-6.5zm3.2 5.2l1.5-2.8z"/><path class="a" d="m247.3 447.7c8.2 0 14.9 6.7 14.9 15v10.5c0 8.2-6.7 15-14.9 15h-113.9v-40.5z"/><path class="y" d="m247.3 488.2h-113.9v-8.3h127.2c-2.4 4.9-7.5 8.3-13.3 8.3z"/><path class="c" d="m237.6 470.6c1.4 0 2.5-1.1 2.5-2.5 0-1.3-1.1-2.4-2.5-2.4h-48.4c-1.4 0-2.5 1.1-2.5 2.4 0 1.4 1.1 2.5 2.5 2.5z"/><path class="c" d="m177.6 470.6c1.4 0 2.5-1.1 2.5-2.5 0-1.3-1.1-2.4-2.5-2.4h-4.2c-1.3 0-2.5 1.1-2.5 2.4 0 1.4 1.2 2.5 2.5 2.5z"/><path class="c" d="m148 470.6c1.4 0 2.5-1.1 2.5-2.5 0-1.3-1.1-2.4-2.5-2.4h-12.6c-1.4 0-2.5 1.1-2.5 2.4 0 1.4 1.1 2.5 2.5 2.5z"/><path fill-rule="evenodd" class="c" d="m124.2 486.1h7.2v-36.7h-7.2c-1.4 0-2.5-1.1-2.5-2.5 0-1.4 1.1-2.5 2.5-2.5h52.9 68.1c11 0 19.9 8.9 19.9 19.9v6.9c0 10.9-8.9 19.9-19.9 19.9h-121c-1.4 0-2.5-1.2-2.5-2.5 0-1.4 1.1-2.5 2.5-2.5zm121 0c8.2 0 14.9-6.7 14.9-14.9v-6.9c0-8.2-6.7-14.9-14.9-14.9h-108.8v36.7z"/><path class="z" d="m214.2 496l12.5-6.3 12.4 6.3v-27.9h-24.9z"/><path fill-rule="evenodd" class="c" d="m241.6 465.7v34.4l-14.9-7.6-15 7.6v-34.4zm-24.9 26.3l10-5.1 9.9 5.1v-21.4h-19.9zm-2.5 4.1l-1.1-2.3z"/><g style="opacity:.3"><path class="a" d="m839.3 185.7c0 9.5-7.7 17.2-17.2 17.2h-102.9c-9.5 0-17.2-7.7-17.2-17.2v-27.5c0-9.4 7.7-17.1 17.2-17.1h102.9c9.5 0 17.2 7.7 17.2 17.1z"/><path class="b" d="m839.3 188.7c0 7.8-7.2 14.2-16 14.2h-95.8c-8.8 0-16-6.4-16-14.2v-22.9c0-7.8 7.2-14.3 16-14.3h95.8c8.8 0 16 6.5 16 14.3z"/><path fill-rule="evenodd" class="c" d="m699.1 185.7v-27.5c0.1-11 9-20 20.1-20h102.9c11.1 0 20.1 9 20.1 20v27.5c0 11.1-9 20.1-20.1 20.1h-102.9c-11.1 0-20-9-20.1-20.1zm20.1-41.8c-7.9 0-14.3 6.5-14.3 14.3v27.5c0 7.9 6.4 14.3 14.3 14.3h102.9c7.9 0 14.3-6.4 14.3-14.3v-27.5c0-7.8-6.4-14.3-14.3-14.3z"/><path class="a" d="m902.4 123.9c0 9.4-7.7 17.2-17.1 17.2h-103c-9.5 0-17.2-7.8-17.2-17.2v-27.5c0-9.5 7.7-17.2 17.2-17.2h103c9.4 0 17.1 7.7 17.1 17.2z"/><path class="b" d="m902.4 126.8c0 7.8-7.2 14.3-16 14.3h-95.8c-8.8 0-15.9-6.5-15.9-14.3v-22.9c0-7.8 7.1-14.2 15.9-14.2h95.8c8.8 0 16 6.4 16 14.2z"/><path fill-rule="evenodd" class="c" d="m762.3 123.9v-27.5c0-11.1 8.9-20 20-20.1h103c11 0.1 20 9 20 20.1v27.5c0 11-9 20-20 20h-103c-11.1 0-20-9-20-20zm20-41.8c-7.9 0-14.3 6.4-14.3 14.3v27.5c0 7.8 6.4 14.3 14.3 14.3h103c7.8 0 14.2-6.5 14.3-14.3v-27.5c-0.1-7.9-6.5-14.3-14.3-14.3z"/></g><g style="opacity:.3"><path class="a" d="m622.6 730.7c0 9.4-7.7 17.1-17.2 17.1h-103c-9.4 0-17.1-7.7-17.1-17.1v-27.6c0-9.4 7.7-17.1 17.1-17.1h103c9.5 0 17.2 7.7 17.2 17.1z"/><path class="b" d="m622.6 733.6c0 7.8-7.2 14.2-16 14.2h-95.8c-8.8 0-16-6.4-16-14.2v-22.9c0-7.8 7.2-14.2 16-14.2h95.8c8.8 0 16 6.4 16 14.2z"/><path fill-rule="evenodd" class="c" d="m482.4 730.7v-27.6c0-11 9-20 20-20h103c11.1 0 20 9 20 20v27.6c0 11-8.9 20-20 20h-103c-11 0-20-9-20-20zm20-41.9c-7.8 0-14.2 6.5-14.3 14.3v27.6c0.1 7.8 6.5 14.3 14.3 14.3h103c7.9 0 14.3-6.5 14.3-14.3v-27.6c0-7.8-6.4-14.3-14.3-14.3z"/><path class="a" d="m561.3 668.8c0 9.4-7.8 17.2-17.2 17.2h-103c-9.4 0-17.1-7.8-17.1-17.2v-27.5c0-9.5 7.7-17.2 17.1-17.2h103c9.4 0 17.2 7.7 17.2 17.2z"/><path class="b" d="m561.3 671.7c0 7.9-7.2 14.3-16 14.3h-95.8c-8.8 0-16-6.4-16-14.3v-22.8c0-7.9 7.2-14.3 16-14.3h95.8c8.8 0 16 6.4 16 14.3z"/><path fill-rule="evenodd" class="c" d="m421.1 668.8v-27.5c0-11.1 9-20 20-20h103c11 0 20 8.9 20 20v27.5c0 11-9 20-20 20h-103c-11 0-20-9-20-20zm20-41.8c-7.8 0-14.3 6.4-14.3 14.3v27.5c0 7.8 6.5 14.3 14.3 14.3h103c7.9 0 14.3-6.5 14.3-14.3v-27.5c0-7.9-6.4-14.3-14.3-14.3z"/><path class="a" d="m699 668.8c0 9.4-7.7 17.2-17.1 17.2h-103c-9.4 0-17.2-7.8-17.2-17.2v-27.5c0-9.5 7.8-17.2 17.2-17.2h103c9.4 0 17.1 7.7 17.1 17.2z"/><path class="b" d="m699 671.7c0 7.9-7.1 14.3-15.9 14.3h-95.9c-8.7 0-15.9-6.4-15.9-14.3v-22.8c0-7.9 7.2-14.3 15.9-14.3h95.9c8.8 0 15.9 6.4 15.9 14.3z"/><path fill-rule="evenodd" class="c" d="m558.9 668.8v-27.5c0-11.1 9-20 20-20h103c11 0 20 8.9 20 20v27.5c0 11-9 20-20 20h-103c-11 0-20-9-20-20zm20-41.8c-7.8 0-14.3 6.4-14.3 14.3v27.5c0 7.8 6.5 14.3 14.3 14.3h103c7.8 0 14.3-6.5 14.3-14.3v-27.5c0-7.9-6.5-14.3-14.3-14.3z"/></g><path class="A" d="m556.4 278.6h-66.3c-1.7 0-3.2 1.5-3.2 3.3v232.2c0 1.8 1.5 3.3 3.2 3.3h306.1z"/><path fill-rule="evenodd" class="c" d="m490.1 520.6c-3.5 0-6.4-2.9-6.4-6.5v-232.2c0-3.6 2.9-6.5 6.4-6.5h376.8c3.6 0 6.5 2.9 6.5 6.5v232.2c0 3.6-2.9 6.5-6.5 6.5zm0-238.7v232.2 0.1h376.8l0.1-0.1v-232.2c0 0 0-0.1-0.1-0.1h-376.8c0 0 0 0.1 0 0.1z"/></svg>