<svg version="1.2" xmlns="http://www.w3.org/2000/svg" viewBox="0 0 1120 512" width="1120" height="512">
	<title>Vector Smart Object-ai</title>
	<style>
		.s0 { fill: #ff3946 } 
		.s1 { fill: #314584 } 
	</style>
	<g id="_Artboards_">
	</g>
	<g id="Layer 1">
		<g id="&lt;Group&gt;">
			<path id="&lt;Path&gt;" class="s0" d="m810.1 504h-474.7v-96h474.7z"/>
			<g id="&lt;Group&gt;">
				<g id="&lt;Group&gt;">
					<path id="&lt;Compound Path&gt;" fill-rule="evenodd" class="s1" d="m234.2 84.3q38.1 38.6 38.1 109.5 0 70.9-38.1 109.5-38.2 38.6-107.8 38.6h-114.4v-296.2h114.4q69.6 0 107.8 38.6zm-47.4 182.9q21.3-25.4 21.3-73.4 0-48-21.3-73.4-21.3-25.3-63.5-25.3h-49.4v197.4h49.4q42.2 0 63.5-25.3z"/>
					<path id="&lt;Compound Path&gt;" fill-rule="evenodd" class="s1" d="m520.7 144q30.3 30.9 30.3 85.7 0 54.8-30.3 85.7-30.3 31-84.6 31-54.3 0-84.6-31-30.3-30.9-30.3-85.7 0-54.8 30.3-85.7 30.3-31 84.6-31 54.3 0 84.6 31zm-124.3 32.5q-13.7 17.8-13.7 53.2 0 35.5 13.7 53.2 13.7 17.7 39.7 17.7 26 0 39.7-17.7 13.7-17.7 13.7-53.2 0-35.4-13.7-53.2-13.7-17.7-39.7-17.7c-17.3 0-30.6 5.9-39.7 17.7z"/>
					<path id="&lt;Compound Path&gt;" fill-rule="evenodd" class="s1" d="m796.3 144q30.3 30.9 30.3 85.7 0 54.8-30.3 85.7-30.3 31-84.6 31-54.3 0-84.6-31-30.3-30.9-30.3-85.7 0-54.8 30.3-85.7 30.3-31 84.6-31 54.3 0 84.6 31zm-124.3 32.5q-13.7 17.8-13.7 53.2 0 35.5 13.7 53.2 13.6 17.7 39.7 17.7 26 0 39.7-17.7 13.7-17.7 13.7-53.2 0-35.4-13.7-53.2-13.7-17.7-39.7-17.7-26.1 0-39.7 17.7z"/>
					<path id="&lt;Compound Path&gt;" fill-rule="evenodd" class="s1" d="m1086.4 144q25.6 30.9 25.6 86.2 0 54.7-25.6 85.4-25.6 30.8-70.4 30.8-26.5 0-46-13.2-19.6-13.3-29.4-35.7l-2.3 44.4h-54.3v-322.7h61.5v135.1q10.3-19.3 28.3-30.3 17.9-11 42.2-11 44.8 0 70.4 31zm-49.8 137.3q13.9-17.9 13.9-51.6 0-33.7-13.9-51.6-13.9-18-39-18-22.5 0-36.4 15.7-13.9 15.7-15.7 44v19.8q1.8 28.7 15.7 44.2 13.9 15.5 36.4 15.5 25.1 0 39-18z"/>
				</g>
			</g>
		</g>
	</g>
</svg>